<svg viewBox="0 0 112 128" xmlns="http://www.w3.org/2000/svg" shapeRendering="crispEdges">
<rect x="24" y="0" width="4" height="4" fill="#1a1510"></rect><rect x="28" y="0" width="4" height="4" fill="#1a1510"></rect><rect x="32" y="0" width="4" height="4" fill="#1a1510"></rect><rect x="36" y="0" width="4" height="4" fill="#1a1510"></rect><rect x="40" y="0" width="4" height="4" fill="#1a1510"></rect><rect x="44" y="0" width="4" height="4" fill="#1a1510"></rect><rect x="48" y="0" width="4" height="4" fill="#1a1510"></rect><rect x="52" y="0" width="4" height="4" fill="#1a1510"></rect><rect x="56" y="0" width="4" height="4" fill="#1a1510"></rect><rect x="60" y="0" width="4" height="4" fill="#1a1510"></rect><rect x="64" y="0" width="4" height="4" fill="#1a1510"></rect><rect x="16" y="4" width="4" height="4" fill="#1a1510"></rect><rect x="20" y="4" width="4" height="4" fill="#1a1510"></rect><rect x="24" y="4" width="4" height="4" fill="#1a1510"></rect><rect x="28" y="4" width="4" height="4" fill="#1a1510"></rect><rect x="32" y="4" width="4" height="4" fill="#2d2318"></rect><rect x="36" y="4" width="4" height="4" fill="#1a1510"></rect><rect x="40" y="4" width="4" height="4" fill="#1a1510"></rect><rect x="44" y="4" width="4" height="4" fill="#1a1510"></rect><rect x="48" y="4" width="4" height="4" fill="#1a1510"></rect><rect x="52" y="4" width="4" height="4" fill="#2d2318"></rect><rect x="56" y="4" width="4" height="4" fill="#1a1510"></rect><rect x="60" y="4" width="4" height="4" fill="#1a1510"></rect><rect x="64" y="4" width="4" height="4" fill="#1a1510"></rect><rect x="68" y="4" width="4" height="4" fill="#1a1510"></rect><rect x="72" y="4" width="4" height="4" fill="#1a1510"></rect><rect x="12" y="8" width="4" height="4" fill="#1a1510"></rect><rect x="16" y="8" width="4" height="4" fill="#1a1510"></rect><rect x="20" y="8" width="4" height="4" fill="#1a1510"></rect><rect x="24" y="8" width="4" height="4" fill="#2d2318"></rect><rect x="28" y="8" width="4" height="4" fill="#1a1510"></rect><rect x="32" y="8" width="4" height="4" fill="#1a1510"></rect><rect x="36" y="8" width="4" height="4" fill="#1a1510"></rect><rect x="40" y="8" width="4" height="4" fill="#1a1510"></rect><rect x="44" y="8" width="4" height="4" fill="#1a1510"></rect><rect x="48" y="8" width="4" height="4" fill="#1a1510"></rect><rect x="52" y="8" width="4" height="4" fill="#1a1510"></rect><rect x="56" y="8" width="4" height="4" fill="#1a1510"></rect><rect x="60" y="8" width="4" height="4" fill="#2d2318"></rect><rect x="64" y="8" width="4" height="4" fill="#1a1510"></rect><rect x="68" y="8" width="4" height="4" fill="#1a1510"></rect><rect x="72" y="8" width="4" height="4" fill="#1a1510"></rect><rect x="76" y="8" width="4" height="4" fill="#1a1510"></rect><rect x="8" y="12" width="4" height="4" fill="#1a1510"></rect><rect x="12" y="12" width="4" height="4" fill="#1a1510"></rect><rect x="16" y="12" width="4" height="4" fill="#1a1510"></rect><rect x="20" y="12" width="4" height="4" fill="#1a1510"></rect><rect x="24" y="12" width="4" height="4" fill="#1a1510"></rect><rect x="28" y="12" width="4" height="4" fill="#1a1510"></rect><rect x="32" y="12" width="4" height="4" fill="#1a1510"></rect><rect x="36" y="12" width="4" height="4" fill="#1a1510"></rect><rect x="40" y="12" width="4" height="4" fill="#1a1510"></rect><rect x="44" y="12" width="4" height="4" fill="#1a1510"></rect><rect x="48" y="12" width="4" height="4" fill="#1a1510"></rect><rect x="52" y="12" width="4" height="4" fill="#1a1510"></rect><rect x="56" y="12" width="4" height="4" fill="#1a1510"></rect><rect x="60" y="12" width="4" height="4" fill="#1a1510"></rect><rect x="64" y="12" width="4" height="4" fill="#1a1510"></rect><rect x="68" y="12" width="4" height="4" fill="#1a1510"></rect><rect x="72" y="12" width="4" height="4" fill="#1a1510"></rect><rect x="76" y="12" width="4" height="4" fill="#1a1510"></rect><rect x="80" y="12" width="4" height="4" fill="#1a1510"></rect><rect x="4" y="16" width="4" height="4" fill="#1a1510"></rect><rect x="8" y="16" width="4" height="4" fill="#1a1510"></rect><rect x="12" y="16" width="4" height="4" fill="#1a1510"></rect><rect x="16" y="16" width="4" height="4" fill="#2d2318"></rect><rect x="20" y="16" width="4" height="4" fill="#1a1510"></rect><rect x="24" y="16" width="4" height="4" fill="#1a1510"></rect><rect x="28" y="16" width="4" height="4" fill="#1a1510"></rect><rect x="32" y="16" width="4" height="4" fill="#1a1510"></rect><rect x="36" y="16" width="4" height="4" fill="#1a1510"></rect><rect x="40" y="16" width="4" height="4" fill="#1a1510"></rect><rect x="44" y="16" width="4" height="4" fill="#1a1510"></rect><rect x="48" y="16" width="4" height="4" fill="#1a1510"></rect><rect x="52" y="16" width="4" height="4" fill="#1a1510"></rect><rect x="56" y="16" width="4" height="4" fill="#1a1510"></rect><rect x="60" y="16" width="4" height="4" fill="#1a1510"></rect><rect x="64" y="16" width="4" height="4" fill="#1a1510"></rect><rect x="68" y="16" width="4" height="4" fill="#2d2318"></rect><rect x="72" y="16" width="4" height="4" fill="#1a1510"></rect><rect x="76" y="16" width="4" height="4" fill="#1a1510"></rect><rect x="80" y="16" width="4" height="4" fill="#1a1510"></rect><rect x="84" y="16" width="4" height="4" fill="#1a1510"></rect><rect x="4" y="20" width="4" height="4" fill="#1a1510"></rect><rect x="8" y="20" width="4" height="4" fill="#1a1510"></rect><rect x="12" y="20" width="4" height="4" fill="#1a1510"></rect><rect x="16" y="20" width="4" height="4" fill="#1a1510"></rect><rect x="20" y="20" width="4" height="4" fill="#c07845"></rect><rect x="24" y="20" width="4" height="4" fill="#c07845"></rect><rect x="28" y="20" width="4" height="4" fill="#c07845"></rect><rect x="32" y="20" width="4" height="4" fill="#c07845"></rect><rect x="36" y="20" width="4" height="4" fill="#c07845"></rect><rect x="40" y="20" width="4" height="4" fill="#c07845"></rect><rect x="44" y="20" width="4" height="4" fill="#c07845"></rect><rect x="48" y="20" width="4" height="4" fill="#c07845"></rect><rect x="52" y="20" width="4" height="4" fill="#c07845"></rect><rect x="56" y="20" width="4" height="4" fill="#c07845"></rect><rect x="60" y="20" width="4" height="4" fill="#c07845"></rect><rect x="64" y="20" width="4" height="4" fill="#1a1510"></rect><rect x="68" y="20" width="4" height="4" fill="#1a1510"></rect><rect x="72" y="20" width="4" height="4" fill="#1a1510"></rect><rect x="76" y="20" width="4" height="4" fill="#1a1510"></rect><rect x="80" y="20" width="4" height="4" fill="#1a1510"></rect><rect x="4" y="24" width="4" height="4" fill="#1a1510"></rect><rect x="8" y="24" width="4" height="4" fill="#1a1510"></rect><rect x="12" y="24" width="4" height="4" fill="#1a1510"></rect><rect x="16" y="24" width="4" height="4" fill="#c07845"></rect><rect x="20" y="24" width="4" height="4" fill="#c07845"></rect><rect x="24" y="24" width="4" height="4" fill="#c07845"></rect><rect x="28" y="24" width="4" height="4" fill="#c07845"></rect><rect x="32" y="24" width="4" height="4" fill="#c07845"></rect><rect x="36" y="24" width="4" height="4" fill="#c07845"></rect><rect x="40" y="24" width="4" height="4" fill="#c07845"></rect><rect x="44" y="24" width="4" height="4" fill="#c07845"></rect><rect x="48" y="24" width="4" height="4" fill="#c07845"></rect><rect x="52" y="24" width="4" height="4" fill="#c07845"></rect><rect x="56" y="24" width="4" height="4" fill="#c07845"></rect><rect x="60" y="24" width="4" height="4" fill="#c07845"></rect><rect x="64" y="24" width="4" height="4" fill="#c07845"></rect><rect x="68" y="24" width="4" height="4" fill="#1a1510"></rect><rect x="72" y="24" width="4" height="4" fill="#1a1510"></rect><rect x="76" y="24" width="4" height="4" fill="#1a1510"></rect><rect x="80" y="24" width="4" height="4" fill="#1a1510"></rect><rect x="4" y="28" width="4" height="4" fill="#1a1510"></rect><rect x="8" y="28" width="4" height="4" fill="#1a1510"></rect><rect x="12" y="28" width="4" height="4" fill="#c07845"></rect><rect x="16" y="28" width="4" height="4" fill="#c07845"></rect><rect x="20" y="28" width="4" height="4" fill="#c07845"></rect><rect x="24" y="28" width="4" height="4" fill="#c07845"></rect><rect x="28" y="28" width="4" height="4" fill="#c07845"></rect><rect x="32" y="28" width="4" height="4" fill="#c07845"></rect><rect x="36" y="28" width="4" height="4" fill="#c07845"></rect><rect x="40" y="28" width="4" height="4" fill="#c07845"></rect><rect x="44" y="28" width="4" height="4" fill="#c07845"></rect><rect x="48" y="28" width="4" height="4" fill="#c07845"></rect><rect x="52" y="28" width="4" height="4" fill="#c07845"></rect><rect x="56" y="28" width="4" height="4" fill="#c07845"></rect><rect x="60" y="28" width="4" height="4" fill="#c07845"></rect><rect x="64" y="28" width="4" height="4" fill="#c07845"></rect><rect x="68" y="28" width="4" height="4" fill="#c07845"></rect><rect x="72" y="28" width="4" height="4" fill="#1a1510"></rect><rect x="76" y="28" width="4" height="4" fill="#1a1510"></rect><rect x="80" y="28" width="4" height="4" fill="#1a1510"></rect><rect x="4" y="32" width="4" height="4" fill="#1a1510"></rect><rect x="8" y="32" width="4" height="4" fill="#1a1510"></rect><rect x="12" y="32" width="4" height="4" fill="#c07845"></rect><rect x="16" y="32" width="4" height="4" fill="#1a1210"></rect><rect x="20" y="32" width="4" height="4" fill="#1a1210"></rect><rect x="24" y="32" width="4" height="4" fill="#1a1210"></rect><rect x="28" y="32" width="4" height="4" fill="#1a1210"></rect><rect x="32" y="32" width="4" height="4" fill="#c07845"></rect><rect x="36" y="32" width="4" height="4" fill="#9a5e30"></rect><rect x="40" y="32" width="4" height="4" fill="#1a1210"></rect><rect x="44" y="32" width="4" height="4" fill="#1a1210"></rect><rect x="48" y="32" width="4" height="4" fill="#1a1210"></rect><rect x="52" y="32" width="4" height="4" fill="#1a1210"></rect><rect x="56" y="32" width="4" height="4" fill="#1a1210"></rect><rect x="60" y="32" width="4" height="4" fill="#c07845"></rect><rect x="64" y="32" width="4" height="4" fill="#c07845"></rect><rect x="68" y="32" width="4" height="4" fill="#c07845"></rect><rect x="72" y="32" width="4" height="4" fill="#1a1510"></rect><rect x="76" y="32" width="4" height="4" fill="#1a1510"></rect><rect x="80" y="32" width="4" height="4" fill="#1a1510"></rect><rect x="4" y="36" width="4" height="4" fill="#1a1510"></rect><rect x="8" y="36" width="4" height="4" fill="#1a1510"></rect><rect x="12" y="36" width="4" height="4" fill="#c07845"></rect><rect x="16" y="36" width="4" height="4" fill="#1a1210"></rect><rect x="20" y="36" width="4" height="4" fill="#1a0e06"></rect><rect x="24" y="36" width="4" height="4" fill="#c07845"></rect><rect x="28" y="36" width="4" height="4" fill="#1a1210"></rect><rect x="32" y="36" width="4" height="4" fill="#c07845"></rect><rect x="36" y="36" width="4" height="4" fill="#9a5e30"></rect><rect x="40" y="36" width="4" height="4" fill="#1a1210"></rect><rect x="44" y="36" width="4" height="4" fill="#c07845"></rect><rect x="48" y="36" width="4" height="4" fill="#1a0e06"></rect><rect x="52" y="36" width="4" height="4" fill="#c07845"></rect><rect x="56" y="36" width="4" height="4" fill="#1a1210"></rect><rect x="60" y="36" width="4" height="4" fill="#c07845"></rect><rect x="64" y="36" width="4" height="4" fill="#c07845"></rect><rect x="68" y="36" width="4" height="4" fill="#c07845"></rect><rect x="72" y="36" width="4" height="4" fill="#1a1510"></rect><rect x="76" y="36" width="4" height="4" fill="#1a1510"></rect><rect x="80" y="36" width="4" height="4" fill="#1a1510"></rect><rect x="4" y="40" width="4" height="4" fill="#1a1510"></rect><rect x="8" y="40" width="4" height="4" fill="#1a1510"></rect><rect x="12" y="40" width="4" height="4" fill="#c07845"></rect><rect x="16" y="40" width="4" height="4" fill="#1a1210"></rect><rect x="20" y="40" width="4" height="4" fill="#1a1210"></rect><rect x="24" y="40" width="4" height="4" fill="#1a1210"></rect><rect x="28" y="40" width="4" height="4" fill="#1a1210"></rect><rect x="32" y="40" width="4" height="4" fill="#c07845"></rect><rect x="36" y="40" width="4" height="4" fill="#9a5e30"></rect><rect x="40" y="40" width="4" height="4" fill="#1a1210"></rect><rect x="44" y="40" width="4" height="4" fill="#1a1210"></rect><rect x="48" y="40" width="4" height="4" fill="#1a1210"></rect><rect x="52" y="40" width="4" height="4" fill="#1a1210"></rect><rect x="56" y="40" width="4" height="4" fill="#1a1210"></rect><rect x="60" y="40" width="4" height="4" fill="#c07845"></rect><rect x="64" y="40" width="4" height="4" fill="#c07845"></rect><rect x="68" y="40" width="4" height="4" fill="#c07845"></rect><rect x="72" y="40" width="4" height="4" fill="#1a1510"></rect><rect x="76" y="40" width="4" height="4" fill="#1a1510"></rect><rect x="80" y="40" width="4" height="4" fill="#1a1510"></rect><rect x="4" y="44" width="4" height="4" fill="#1a1510"></rect><rect x="8" y="44" width="4" height="4" fill="#1a1510"></rect><rect x="12" y="44" width="4" height="4" fill="#c07845"></rect><rect x="16" y="44" width="4" height="4" fill="#c07845"></rect><rect x="20" y="44" width="4" height="4" fill="#c07845"></rect><rect x="24" y="44" width="4" height="4" fill="#c07845"></rect><rect x="28" y="44" width="4" height="4" fill="#c07845"></rect><rect x="32" y="44" width="4" height="4" fill="#c07845"></rect><rect x="36" y="44" width="4" height="4" fill="#c07845"></rect><rect x="40" y="44" width="4" height="4" fill="#c07845"></rect><rect x="44" y="44" width="4" height="4" fill="#c07845"></rect><rect x="48" y="44" width="4" height="4" fill="#c07845"></rect><rect x="52" y="44" width="4" height="4" fill="#c07845"></rect><rect x="56" y="44" width="4" height="4" fill="#c07845"></rect><rect x="60" y="44" width="4" height="4" fill="#c07845"></rect><rect x="64" y="44" width="4" height="4" fill="#c07845"></rect><rect x="68" y="44" width="4" height="4" fill="#c07845"></rect><rect x="72" y="44" width="4" height="4" fill="#1a1510"></rect><rect x="76" y="44" width="4" height="4" fill="#1a1510"></rect><rect x="4" y="48" width="4" height="4" fill="#1a1510"></rect><rect x="8" y="48" width="4" height="4" fill="#1a1510"></rect><rect x="12" y="48" width="4" height="4" fill="#c07845"></rect><rect x="16" y="48" width="4" height="4" fill="#c07845"></rect><rect x="20" y="48" width="4" height="4" fill="#c07845"></rect><rect x="24" y="48" width="4" height="4" fill="#c07845"></rect><rect x="28" y="48" width="4" height="4" fill="#c07845"></rect><rect x="32" y="48" width="4" height="4" fill="#9a5e30"></rect><rect x="36" y="48" width="4" height="4" fill="#c07845"></rect><rect x="40" y="48" width="4" height="4" fill="#9a5e30"></rect><rect x="44" y="48" width="4" height="4" fill="#c07845"></rect><rect x="48" y="48" width="4" height="4" fill="#c07845"></rect><rect x="52" y="48" width="4" height="4" fill="#c07845"></rect><rect x="56" y="48" width="4" height="4" fill="#c07845"></rect><rect x="60" y="48" width="4" height="4" fill="#c07845"></rect><rect x="64" y="48" width="4" height="4" fill="#c07845"></rect><rect x="68" y="48" width="4" height="4" fill="#1a1510"></rect><rect x="72" y="48" width="4" height="4" fill="#1a1510"></rect><rect x="4" y="52" width="4" height="4" fill="#1a1510"></rect><rect x="8" y="52" width="4" height="4" fill="#c07845"></rect><rect x="12" y="52" width="4" height="4" fill="#c07845"></rect><rect x="16" y="52" width="4" height="4" fill="#c07845"></rect><rect x="20" y="52" width="4" height="4" fill="#2a1a0c"></rect><rect x="24" y="52" width="4" height="4" fill="#2a1a0c"></rect><rect x="28" y="52" width="4" height="4" fill="#2a1a0c"></rect><rect x="32" y="52" width="4" height="4" fill="#2a1a0c"></rect><rect x="36" y="52" width="4" height="4" fill="#2a1a0c"></rect><rect x="40" y="52" width="4" height="4" fill="#2a1a0c"></rect><rect x="44" y="52" width="4" height="4" fill="#2a1a0c"></rect><rect x="48" y="52" width="4" height="4" fill="#2a1a0c"></rect><rect x="52" y="52" width="4" height="4" fill="#c07845"></rect><rect x="56" y="52" width="4" height="4" fill="#c07845"></rect><rect x="60" y="52" width="4" height="4" fill="#c07845"></rect><rect x="64" y="52" width="4" height="4" fill="#c07845"></rect><rect x="68" y="52" width="4" height="4" fill="#1a1510"></rect><rect x="4" y="56" width="4" height="4" fill="#1a1510"></rect><rect x="8" y="56" width="4" height="4" fill="#c07845"></rect><rect x="12" y="56" width="4" height="4" fill="#c07845"></rect><rect x="16" y="56" width="4" height="4" fill="#c07845"></rect><rect x="20" y="56" width="4" height="4" fill="#f5f3ee"></rect><rect x="24" y="56" width="4" height="4" fill="#f5f3ee"></rect><rect x="28" y="56" width="4" height="4" fill="#f5f3ee"></rect><rect x="32" y="56" width="4" height="4" fill="#f5f3ee"></rect><rect x="36" y="56" width="4" height="4" fill="#f5f3ee"></rect><rect x="40" y="56" width="4" height="4" fill="#f5f3ee"></rect><rect x="44" y="56" width="4" height="4" fill="#f5f3ee"></rect><rect x="48" y="56" width="4" height="4" fill="#f5f3ee"></rect><rect x="52" y="56" width="4" height="4" fill="#f5f3ee"></rect><rect x="56" y="56" width="4" height="4" fill="#f5f3ee"></rect><rect x="60" y="56" width="4" height="4" fill="#c07845"></rect><rect x="64" y="56" width="4" height="4" fill="#c07845"></rect><rect x="68" y="56" width="4" height="4" fill="#1a1510"></rect><rect x="4" y="60" width="4" height="4" fill="#1a1510"></rect><rect x="8" y="60" width="4" height="4" fill="#c07845"></rect><rect x="12" y="60" width="4" height="4" fill="#c07845"></rect><rect x="16" y="60" width="4" height="4" fill="#7a2618"></rect><rect x="20" y="60" width="4" height="4" fill="#7a2618"></rect><rect x="24" y="60" width="4" height="4" fill="#7a2618"></rect><rect x="28" y="60" width="4" height="4" fill="#7a2618"></rect><rect x="32" y="60" width="4" height="4" fill="#7a2618"></rect><rect x="36" y="60" width="4" height="4" fill="#7a2618"></rect><rect x="40" y="60" width="4" height="4" fill="#7a2618"></rect><rect x="44" y="60" width="4" height="4" fill="#7a2618"></rect><rect x="48" y="60" width="4" height="4" fill="#7a2618"></rect><rect x="52" y="60" width="4" height="4" fill="#7a2618"></rect><rect x="56" y="60" width="4" height="4" fill="#7a2618"></rect><rect x="60" y="60" width="4" height="4" fill="#7a2618"></rect><rect x="64" y="60" width="4" height="4" fill="#c07845"></rect><rect x="68" y="60" width="4" height="4" fill="#1a1510"></rect><rect x="8" y="64" width="4" height="4" fill="#1a1510"></rect><rect x="12" y="64" width="4" height="4" fill="#c07845"></rect><rect x="16" y="64" width="4" height="4" fill="#c07845"></rect><rect x="20" y="64" width="4" height="4" fill="#c07845"></rect><rect x="24" y="64" width="4" height="4" fill="#9a5e30"></rect><rect x="28" y="64" width="4" height="4" fill="#c07845"></rect><rect x="32" y="64" width="4" height="4" fill="#2a1a0c"></rect><rect x="36" y="64" width="4" height="4" fill="#c07845"></rect><rect x="40" y="64" width="4" height="4" fill="#2a1a0c"></rect><rect x="44" y="64" width="4" height="4" fill="#c07845"></rect><rect x="48" y="64" width="4" height="4" fill="#9a5e30"></rect><rect x="52" y="64" width="4" height="4" fill="#c07845"></rect><rect x="56" y="64" width="4" height="4" fill="#c07845"></rect><rect x="60" y="64" width="4" height="4" fill="#c07845"></rect><rect x="64" y="64" width="4" height="4" fill="#1a1510"></rect><rect x="8" y="68" width="4" height="4" fill="#1a1510"></rect><rect x="12" y="68" width="4" height="4" fill="#c07845"></rect><rect x="16" y="68" width="4" height="4" fill="#c07845"></rect><rect x="20" y="68" width="4" height="4" fill="#c07845"></rect><rect x="24" y="68" width="4" height="4" fill="#c07845"></rect><rect x="28" y="68" width="4" height="4" fill="#2a1a0c"></rect><rect x="32" y="68" width="4" height="4" fill="#c07845"></rect><rect x="36" y="68" width="4" height="4" fill="#2a1a0c"></rect><rect x="40" y="68" width="4" height="4" fill="#c07845"></rect><rect x="44" y="68" width="4" height="4" fill="#2a1a0c"></rect><rect x="48" y="68" width="4" height="4" fill="#c07845"></rect><rect x="52" y="68" width="4" height="4" fill="#c07845"></rect><rect x="56" y="68" width="4" height="4" fill="#c07845"></rect><rect x="60" y="68" width="4" height="4" fill="#1a1510"></rect><rect x="64" y="68" width="4" height="4" fill="#1a1510"></rect><rect x="12" y="72" width="4" height="4" fill="#1a1510"></rect><rect x="16" y="72" width="4" height="4" fill="#9a5e30"></rect><rect x="20" y="72" width="4" height="4" fill="#eeebe0"></rect><rect x="24" y="72" width="4" height="4" fill="#eeebe0"></rect><rect x="28" y="72" width="4" height="4" fill="#eeebe0"></rect><rect x="32" y="72" width="4" height="4" fill="#eeebe0"></rect><rect x="36" y="72" width="4" height="4" fill="#eeebe0"></rect><rect x="40" y="72" width="4" height="4" fill="#eeebe0"></rect><rect x="44" y="72" width="4" height="4" fill="#eeebe0"></rect><rect x="48" y="72" width="4" height="4" fill="#eeebe0"></rect><rect x="52" y="72" width="4" height="4" fill="#eeebe0"></rect><rect x="56" y="72" width="4" height="4" fill="#9a5e30"></rect><rect x="60" y="72" width="4" height="4" fill="#1a1510"></rect><rect x="12" y="76" width="4" height="4" fill="#1e1810"></rect><rect x="16" y="76" width="4" height="4" fill="#1e1810"></rect><rect x="20" y="76" width="4" height="4" fill="#eeebe0"></rect><rect x="24" y="76" width="4" height="4" fill="#eeebe0"></rect><rect x="28" y="76" width="4" height="4" fill="#c8aa50"></rect><rect x="32" y="76" width="4" height="4" fill="#eeebe0"></rect><rect x="36" y="76" width="4" height="4" fill="#eeebe0"></rect><rect x="40" y="76" width="4" height="4" fill="#c8aa50"></rect><rect x="44" y="76" width="4" height="4" fill="#eeebe0"></rect><rect x="48" y="76" width="4" height="4" fill="#eeebe0"></rect><rect x="52" y="76" width="4" height="4" fill="#1e1810"></rect><rect x="56" y="76" width="4" height="4" fill="#1e1810"></rect><rect x="60" y="76" width="4" height="4" fill="#1e1810"></rect><rect x="12" y="80" width="4" height="4" fill="#1e1810"></rect><rect x="16" y="80" width="4" height="4" fill="#2c2418"></rect><rect x="20" y="80" width="4" height="4" fill="#1e1810"></rect><rect x="24" y="80" width="4" height="4" fill="#eeebe0"></rect><rect x="28" y="80" width="4" height="4" fill="#c8aa50"></rect><rect x="32" y="80" width="4" height="4" fill="#eeebe0"></rect><rect x="36" y="80" width="4" height="4" fill="#eeebe0"></rect><rect x="40" y="80" width="4" height="4" fill="#c8aa50"></rect><rect x="44" y="80" width="4" height="4" fill="#eeebe0"></rect><rect x="48" y="80" width="4" height="4" fill="#1e1810"></rect><rect x="52" y="80" width="4" height="4" fill="#2c2418"></rect><rect x="56" y="80" width="4" height="4" fill="#1e1810"></rect><rect x="60" y="80" width="4" height="4" fill="#1e1810"></rect><rect x="12" y="84" width="4" height="4" fill="#1e1810"></rect><rect x="16" y="84" width="4" height="4" fill="#1e1810"></rect><rect x="20" y="84" width="4" height="4" fill="#2c2418"></rect><rect x="24" y="84" width="4" height="4" fill="#1e1810"></rect><rect x="28" y="84" width="4" height="4" fill="#1e1810"></rect><rect x="32" y="84" width="4" height="4" fill="#1e1810"></rect><rect x="36" y="84" width="4" height="4" fill="#1e1810"></rect><rect x="40" y="84" width="4" height="4" fill="#1e1810"></rect><rect x="44" y="84" width="4" height="4" fill="#1e1810"></rect><rect x="48" y="84" width="4" height="4" fill="#2c2418"></rect><rect x="52" y="84" width="4" height="4" fill="#1e1810"></rect><rect x="56" y="84" width="4" height="4" fill="#1e1810"></rect><rect x="60" y="84" width="4" height="4" fill="#1e1810"></rect><rect x="8" y="88" width="4" height="4" fill="#1e1810"></rect><rect x="12" y="88" width="4" height="4" fill="#1e1810"></rect><rect x="16" y="88" width="4" height="4" fill="#1e1810"></rect><rect x="20" y="88" width="4" height="4" fill="#1e1810"></rect><rect x="24" y="88" width="4" height="4" fill="#2c2418"></rect><rect x="28" y="88" width="4" height="4" fill="#1e1810"></rect><rect x="32" y="88" width="4" height="4" fill="#1e1810"></rect><rect x="36" y="88" width="4" height="4" fill="#1e1810"></rect><rect x="40" y="88" width="4" height="4" fill="#1e1810"></rect><rect x="44" y="88" width="4" height="4" fill="#2c2418"></rect><rect x="48" y="88" width="4" height="4" fill="#1e1810"></rect><rect x="52" y="88" width="4" height="4" fill="#1e1810"></rect><rect x="56" y="88" width="4" height="4" fill="#1e1810"></rect><rect x="60" y="88" width="4" height="4" fill="#1e1810"></rect><rect x="64" y="88" width="4" height="4" fill="#1e1810"></rect><rect x="8" y="92" width="4" height="4" fill="#1e1810"></rect><rect x="12" y="92" width="4" height="4" fill="#1e1810"></rect><rect x="16" y="92" width="4" height="4" fill="#1e1810"></rect><rect x="20" y="92" width="4" height="4" fill="#1e1810"></rect><rect x="24" y="92" width="4" height="4" fill="#1e1810"></rect><rect x="28" y="92" width="4" height="4" fill="#1e1810"></rect><rect x="32" y="92" width="4" height="4" fill="#1e1810"></rect><rect x="36" y="92" width="4" height="4" fill="#1e1810"></rect><rect x="40" y="92" width="4" height="4" fill="#1e1810"></rect><rect x="44" y="92" width="4" height="4" fill="#1e1810"></rect><rect x="48" y="92" width="4" height="4" fill="#1e1810"></rect><rect x="52" y="92" width="4" height="4" fill="#1e1810"></rect><rect x="56" y="92" width="4" height="4" fill="#1e1810"></rect><rect x="60" y="92" width="4" height="4" fill="#1e1810"></rect><rect x="64" y="92" width="4" height="4" fill="#1e1810"></rect><rect x="8" y="96" width="4" height="4" fill="#1e1810"></rect><rect x="12" y="96" width="4" height="4" fill="#1e1810"></rect><rect x="16" y="96" width="4" height="4" fill="#2c2418"></rect><rect x="20" y="96" width="4" height="4" fill="#1e1810"></rect><rect x="24" y="96" width="4" height="4" fill="#1e1810"></rect><rect x="28" y="96" width="4" height="4" fill="#1e1810"></rect><rect x="32" y="96" width="4" height="4" fill="#1e1810"></rect><rect x="36" y="96" width="4" height="4" fill="#1e1810"></rect><rect x="40" y="96" width="4" height="4" fill="#1e1810"></rect><rect x="44" y="96" width="4" height="4" fill="#1e1810"></rect><rect x="48" y="96" width="4" height="4" fill="#1e1810"></rect><rect x="52" y="96" width="4" height="4" fill="#2c2418"></rect><rect x="56" y="96" width="4" height="4" fill="#1e1810"></rect><rect x="60" y="96" width="4" height="4" fill="#1e1810"></rect><rect x="64" y="96" width="4" height="4" fill="#1e1810"></rect><rect x="8" y="100" width="4" height="4" fill="#1e1810"></rect><rect x="12" y="100" width="4" height="4" fill="#1e1810"></rect><rect x="16" y="100" width="4" height="4" fill="#1e1810"></rect><rect x="20" y="100" width="4" height="4" fill="#1e1810"></rect><rect x="24" y="100" width="4" height="4" fill="#1e1810"></rect><rect x="28" y="100" width="4" height="4" fill="#1e1810"></rect><rect x="32" y="100" width="4" height="4" fill="#1e1810"></rect><rect x="36" y="100" width="4" height="4" fill="#1e1810"></rect><rect x="40" y="100" width="4" height="4" fill="#1e1810"></rect><rect x="44" y="100" width="4" height="4" fill="#1e1810"></rect><rect x="48" y="100" width="4" height="4" fill="#1e1810"></rect><rect x="52" y="100" width="4" height="4" fill="#1e1810"></rect><rect x="56" y="100" width="4" height="4" fill="#1e1810"></rect><rect x="60" y="100" width="4" height="4" fill="#1e1810"></rect><rect x="64" y="100" width="4" height="4" fill="#1e1810"></rect><rect x="4" y="104" width="4" height="4" fill="#1e1810"></rect><rect x="8" y="104" width="4" height="4" fill="#1e1810"></rect><rect x="12" y="104" width="4" height="4" fill="#1e1810"></rect><rect x="16" y="104" width="4" height="4" fill="#1e1810"></rect><rect x="20" y="104" width="4" height="4" fill="#2c2418"></rect><rect x="24" y="104" width="4" height="4" fill="#1e1810"></rect><rect x="28" y="104" width="4" height="4" fill="#1e1810"></rect><rect x="32" y="104" width="4" height="4" fill="#1e1810"></rect><rect x="36" y="104" width="4" height="4" fill="#1e1810"></rect><rect x="40" y="104" width="4" height="4" fill="#1e1810"></rect><rect x="44" y="104" width="4" height="4" fill="#1e1810"></rect><rect x="48" y="104" width="4" height="4" fill="#2c2418"></rect><rect x="52" y="104" width="4" height="4" fill="#1e1810"></rect><rect x="56" y="104" width="4" height="4" fill="#1e1810"></rect><rect x="60" y="104" width="4" height="4" fill="#1e1810"></rect><rect x="64" y="104" width="4" height="4" fill="#1e1810"></rect><rect x="68" y="104" width="4" height="4" fill="#1e1810"></rect><rect x="4" y="108" width="4" height="4" fill="#1e1810"></rect><rect x="8" y="108" width="4" height="4" fill="#1e1810"></rect><rect x="12" y="108" width="4" height="4" fill="#1e1810"></rect><rect x="16" y="108" width="4" height="4" fill="#1e1810"></rect><rect x="20" y="108" width="4" height="4" fill="#1e1810"></rect><rect x="24" y="108" width="4" height="4" fill="#1e1810"></rect><rect x="28" y="108" width="4" height="4" fill="#1e1810"></rect><rect x="32" y="108" width="4" height="4" fill="#1e1810"></rect><rect x="36" y="108" width="4" height="4" fill="#1e1810"></rect><rect x="40" y="108" width="4" height="4" fill="#1e1810"></rect><rect x="44" y="108" width="4" height="4" fill="#1e1810"></rect><rect x="48" y="108" width="4" height="4" fill="#1e1810"></rect><rect x="52" y="108" width="4" height="4" fill="#1e1810"></rect><rect x="56" y="108" width="4" height="4" fill="#1e1810"></rect><rect x="60" y="108" width="4" height="4" fill="#1e1810"></rect><rect x="64" y="108" width="4" height="4" fill="#1e1810"></rect><rect x="68" y="108" width="4" height="4" fill="#1e1810"></rect><rect x="0" y="112" width="4" height="4" fill="#1e1810"></rect><rect x="4" y="112" width="4" height="4" fill="#1e1810"></rect><rect x="8" y="112" width="4" height="4" fill="#1e1810"></rect><rect x="12" y="112" width="4" height="4" fill="#1e1810"></rect><rect x="16" y="112" width="4" height="4" fill="#1e1810"></rect><rect x="20" y="112" width="4" height="4" fill="#1e1810"></rect><rect x="24" y="112" width="4" height="4" fill="#2c2418"></rect><rect x="28" y="112" width="4" height="4" fill="#1e1810"></rect><rect x="32" y="112" width="4" height="4" fill="#1e1810"></rect><rect x="36" y="112" width="4" height="4" fill="#1e1810"></rect><rect x="40" y="112" width="4" height="4" fill="#1e1810"></rect><rect x="44" y="112" width="4" height="4" fill="#2c2418"></rect><rect x="48" y="112" width="4" height="4" fill="#1e1810"></rect><rect x="52" y="112" width="4" height="4" fill="#1e1810"></rect><rect x="56" y="112" width="4" height="4" fill="#1e1810"></rect><rect x="60" y="112" width="4" height="4" fill="#1e1810"></rect><rect x="64" y="112" width="4" height="4" fill="#1e1810"></rect><rect x="68" y="112" width="4" height="4" fill="#1e1810"></rect><rect x="72" y="112" width="4" height="4" fill="#1e1810"></rect><rect x="0" y="116" width="4" height="4" fill="#1e1810"></rect><rect x="4" y="116" width="4" height="4" fill="#1e1810"></rect><rect x="8" y="116" width="4" height="4" fill="#1e1810"></rect><rect x="12" y="116" width="4" height="4" fill="#1e1810"></rect><rect x="16" y="116" width="4" height="4" fill="#1e1810"></rect><rect x="20" y="116" width="4" height="4" fill="#1e1810"></rect><rect x="24" y="116" width="4" height="4" fill="#1e1810"></rect><rect x="28" y="116" width="4" height="4" fill="#1e1810"></rect><rect x="32" y="116" width="4" height="4" fill="#1e1810"></rect><rect x="36" y="116" width="4" height="4" fill="#1e1810"></rect><rect x="40" y="116" width="4" height="4" fill="#1e1810"></rect><rect x="44" y="116" width="4" height="4" fill="#1e1810"></rect><rect x="48" y="116" width="4" height="4" fill="#1e1810"></rect><rect x="52" y="116" width="4" height="4" fill="#1e1810"></rect><rect x="56" y="116" width="4" height="4" fill="#1e1810"></rect><rect x="60" y="116" width="4" height="4" fill="#1e1810"></rect><rect x="64" y="116" width="4" height="4" fill="#1e1810"></rect><rect x="68" y="116" width="4" height="4" fill="#1e1810"></rect><rect x="72" y="116" width="4" height="4" fill="#1e1810"></rect><rect x="0" y="120" width="4" height="4" fill="#1e1810"></rect><rect x="4" y="120" width="4" height="4" fill="#1e1810"></rect><rect x="8" y="120" width="4" height="4" fill="#1e1810"></rect><rect x="12" y="120" width="4" height="4" fill="#1e1810"></rect><rect x="16" y="120" width="4" height="4" fill="#2c2418"></rect><rect x="20" y="120" width="4" height="4" fill="#1e1810"></rect><rect x="24" y="120" width="4" height="4" fill="#1e1810"></rect><rect x="28" y="120" width="4" height="4" fill="#1e1810"></rect><rect x="32" y="120" width="4" height="4" fill="#1e1810"></rect><rect x="36" y="120" width="4" height="4" fill="#1e1810"></rect><rect x="40" y="120" width="4" height="4" fill="#1e1810"></rect><rect x="44" y="120" width="4" height="4" fill="#1e1810"></rect><rect x="48" y="120" width="4" height="4" fill="#1e1810"></rect><rect x="52" y="120" width="4" height="4" fill="#2c2418"></rect><rect x="56" y="120" width="4" height="4" fill="#1e1810"></rect><rect x="60" y="120" width="4" height="4" fill="#1e1810"></rect><rect x="64" y="120" width="4" height="4" fill="#1e1810"></rect><rect x="68" y="120" width="4" height="4" fill="#1e1810"></rect><rect x="72" y="120" width="4" height="4" fill="#1e1810"></rect><rect x="0" y="124" width="4" height="4" fill="#1e1810"></rect><rect x="4" y="124" width="4" height="4" fill="#1e1810"></rect><rect x="8" y="124" width="4" height="4" fill="#1e1810"></rect><rect x="12" y="124" width="4" height="4" fill="#1e1810"></rect><rect x="16" y="124" width="4" height="4" fill="#1e1810"></rect><rect x="20" y="124" width="4" height="4" fill="#1e1810"></rect><rect x="24" y="124" width="4" height="4" fill="#1e1810"></rect><rect x="28" y="124" width="4" height="4" fill="#1e1810"></rect><rect x="32" y="124" width="4" height="4" fill="#1e1810"></rect><rect x="36" y="124" width="4" height="4" fill="#1e1810"></rect><rect x="40" y="124" width="4" height="4" fill="#1e1810"></rect><rect x="44" y="124" width="4" height="4" fill="#1e1810"></rect><rect x="48" y="124" width="4" height="4" fill="#1e1810"></rect><rect x="52" y="124" width="4" height="4" fill="#1e1810"></rect><rect x="56" y="124" width="4" height="4" fill="#1e1810"></rect><rect x="60" y="124" width="4" height="4" fill="#1e1810"></rect><rect x="64" y="124" width="4" height="4" fill="#1e1810"></rect><rect x="68" y="124" width="4" height="4" fill="#1e1810"></rect><rect x="72" y="124" width="4" height="4" fill="#1e1810"></rect>
</svg>